<svg width="40" height="40" viewBox="0 0 40 40" fill="none" xmlns="http://www.w3.org/2000/svg">
<path d="M19.9606 28.3227C16.7087 28.3227 13.4479 28.3227 10.1961 28.3227C7.53385 28.3227 5.30043 26.3841 5.03242 23.7397C4.85375 21.9708 5.4255 20.3806 6.46181 18.9602C7.78399 17.1466 9.57966 15.9406 11.5987 15.0293C13.5015 14.1717 15.5027 13.6804 17.5842 13.4749C19.1298 13.3141 20.6753 13.2783 22.2208 13.4302C25.3119 13.734 28.2332 14.5827 30.824 16.3605C32.4231 17.4593 33.7453 18.8083 34.4689 20.6486C35.2283 22.5783 35.264 24.4812 33.9775 26.2232C32.968 27.599 31.5744 28.3227 29.8591 28.3227C26.5537 28.3316 23.2571 28.3227 19.9606 28.3227ZM9.74047 17.3074C8.69523 18.0311 7.81079 18.8619 7.1229 19.8982C6.43501 20.9434 6.01513 22.0959 6.08659 23.3555C6.20273 25.5979 7.9984 27.2506 10.2497 27.2506C16.7355 27.2506 23.2214 27.2596 29.7162 27.2417C30.1182 27.2417 30.5381 27.1792 30.9312 27.0719C32.9323 26.5181 34.3885 24.4276 33.7274 21.9083C33.1735 19.7999 31.7799 18.3527 30.0378 17.1734C29.9574 17.1198 29.8234 17.093 29.7251 17.1109C27.9384 17.2717 26.4107 18.6028 25.9998 20.3628C25.964 20.5236 25.9283 20.6933 25.8747 20.8452C25.5888 21.6403 24.7491 22.0691 23.9272 21.8457C23.1231 21.6313 22.6228 20.8362 22.7747 20.0233C23.007 18.7815 23.5073 17.6648 24.3024 16.691C24.7401 16.155 25.2047 15.6547 25.6245 15.1723C25.3923 15.1276 24.9992 14.9668 24.615 14.9847C24.1505 15.0115 23.6681 15.1455 23.2303 15.3242C21.1488 16.1729 19.907 17.7184 19.5228 19.9429C19.362 20.872 18.5759 21.4884 17.6914 21.3633C16.7891 21.2293 16.1817 20.3985 16.3246 19.4962C16.5837 17.906 17.2001 16.4677 18.2096 15.1991C18.3883 14.9668 18.5848 14.7435 18.826 14.4576C18.3972 14.4933 18.0399 14.5291 17.6914 14.5469C16.6819 14.6095 15.7528 14.9132 14.9309 15.5207C13.6177 16.5034 12.8226 17.7899 12.5546 19.4068C12.3938 20.3985 11.5897 20.9881 10.6338 20.8094C9.73154 20.6486 9.20445 19.8446 9.38312 18.8887C9.49033 18.3795 9.6154 17.8792 9.74047 17.3074ZM22.203 14.538C21.7027 14.5023 21.2113 14.4576 20.711 14.4397C20.5949 14.4308 20.443 14.4844 20.3537 14.5648C18.7992 15.8244 17.8254 17.4414 17.4502 19.4068C17.352 19.9339 17.486 20.2109 17.8433 20.2824C18.1917 20.3538 18.424 20.1126 18.5133 19.5855C18.7188 18.4241 19.2012 17.3878 19.9427 16.4677C20.5681 15.6815 21.3364 15.074 22.203 14.538ZM28.3761 16.2175C28.0902 16.0925 27.7508 15.9584 27.4202 15.7976C27.2237 15.6994 27.0718 15.7262 26.8931 15.8334C25.6603 16.5927 24.7401 17.6201 24.213 18.9691C24.0522 19.3711 23.945 19.791 23.8557 20.2198C23.7931 20.5146 23.9897 20.7648 24.2666 20.8184C24.5525 20.8809 24.8116 20.7201 24.9099 20.4253C24.9277 20.3717 24.9367 20.3181 24.9456 20.2645C25.1868 19.1656 25.6871 18.2008 26.5447 17.4772C27.0986 17.0037 27.7508 16.6374 28.3761 16.2175ZM13.2157 15.5296C12.6618 15.7708 12.099 16.0031 11.554 16.2622C11.4557 16.3069 11.3664 16.4141 11.3128 16.5123C10.8572 17.3432 10.5802 18.2276 10.4462 19.1567C10.4016 19.4694 10.5624 19.7017 10.8482 19.7463C11.1699 19.7999 11.4468 19.6391 11.4915 19.3175C11.6969 17.906 12.3044 16.6642 13.2157 15.5296Z" fill="#113B28"/>
<path d="M19.9872 26.1875C17.1016 26.1875 14.216 26.1875 11.3304 26.1875C9.93677 26.1875 8.65032 25.8302 7.47108 25.0797C7.12266 24.8564 7.01546 24.5616 7.19413 24.2757C7.36387 23.9988 7.68548 23.9541 8.04283 24.1774C9.0702 24.8296 10.1869 25.1244 11.4019 25.1155C17.1194 25.1065 22.837 25.1065 28.5546 25.1155C29.7517 25.1155 30.8684 24.8475 31.8868 24.2042C32.2174 23.9988 32.539 24.0434 32.7087 24.3204C32.8785 24.5973 32.7891 24.8921 32.4586 25.1065C31.2972 25.8391 30.0286 26.1875 28.6528 26.1786C25.7673 26.1786 22.8727 26.1875 19.9872 26.1875Z" fill="#113B28"/>
</svg>
