<svg width="40" height="40" viewBox="0 0 40 40" fill="none" xmlns="http://www.w3.org/2000/svg">
<path d="M35 21.1032C33.9828 23.4976 32.5508 25.5947 30.6337 27.3631C28.5367 29.2881 26.0953 30.4931 23.247 30.7513C19.718 31.0799 16.5881 30.0862 13.8963 27.7779C13.1217 27.1127 12.4331 26.3537 11.6819 25.6182C11.6897 25.5869 11.6897 25.6182 11.6741 25.6417C10.7664 27.2927 9.28748 28.1065 7.49558 28.4273C6.50965 28.5995 6.4627 28.5682 5.95408 27.6996C5.09334 26.2364 4.71775 24.6949 5.24202 23.0203C5.50806 22.1674 5.9932 21.4397 6.65832 20.845C6.63484 20.8059 6.62702 20.7746 6.61137 20.7589C4.9838 19.1705 4.62386 17.2847 5.37505 15.1798C5.59414 14.5773 5.96973 14.0217 6.28273 13.4505C6.41575 13.2001 6.64267 13.114 6.92437 13.1453C8.92753 13.3644 10.6021 14.1313 11.6506 15.9623C11.6662 15.9936 11.6897 16.0249 11.721 16.0718C11.7836 16.0014 11.8462 15.9388 11.901 15.8762C12.973 14.5616 14.225 13.4662 15.6804 12.582C15.8369 12.4881 15.876 12.402 15.8682 12.2142C15.8369 11.5725 15.7821 10.9231 15.8447 10.2893C15.9151 9.56938 16.3612 9.03729 17.0263 8.77124C17.5192 8.57562 18.0513 8.4426 18.5756 8.38783C19.8589 8.2548 21.1265 8.3487 22.3394 8.85732C23.3879 9.29551 24.2095 9.99975 24.8198 10.9622C24.8824 11.0639 24.9998 11.1813 25.1094 11.2126C27.942 11.956 30.1955 13.5757 32.0657 15.7745C33.169 17.0656 34.0688 18.4897 34.7809 20.0312C34.8591 20.1956 34.9296 20.3677 35 20.532C35 20.712 35 20.9076 35 21.1032ZM26.8387 12.9106C26.7839 12.8793 26.7682 12.8558 26.7369 12.848C24.6946 11.909 22.5585 11.6273 20.3362 11.9403C17.8401 12.2924 15.7195 13.4427 13.9042 15.1642C12.7226 16.2909 11.7601 17.582 10.9385 18.9905C10.7586 19.3035 10.4612 19.3974 10.203 19.2331C9.95259 19.0766 9.89782 18.8027 10.0778 18.4897C10.2969 18.1141 10.5082 17.7151 10.7742 17.3786C11.0168 17.0734 10.9933 16.8309 10.8212 16.5179C10.0152 15.0546 8.69279 14.4052 7.11216 14.1704C7.04957 14.1626 6.93219 14.2408 6.89306 14.3034C6.66614 14.7416 6.40793 15.1798 6.25143 15.6415C5.62544 17.4725 6.16536 19.2331 7.65208 20.3051C8.1294 20.6494 8.1294 20.978 7.64426 21.3145C7.08087 21.7136 6.6505 22.2222 6.36098 22.8404C5.76629 24.1393 5.91496 25.4226 6.53312 26.6511C7.04956 27.6761 6.807 27.5666 7.91813 27.2849C9.24836 26.9484 10.3125 26.2051 10.9072 24.914C10.9933 24.7262 11.0011 24.5775 10.8681 24.3819C10.5708 23.9515 10.2969 23.4976 10.0308 23.0438C9.89 22.7934 9.97607 22.5195 10.203 22.3787C10.4299 22.2457 10.7116 22.3004 10.8759 22.5274C10.9463 22.6291 11.0089 22.7465 11.0715 22.8482C11.9792 24.374 13.0591 25.7669 14.4284 26.9171C17.7227 29.6871 21.4395 30.4618 25.5632 29.2176C25.9936 29.0846 26.4083 28.8968 26.8074 28.7403C26.2127 28.0048 25.6493 27.3005 25.0937 26.6119C24.8355 26.8545 24.5773 27.1675 24.2565 27.3944C23.2236 28.1378 22.042 28.3804 20.79 28.2708C19.9371 28.2004 19.2094 27.5666 19.0529 26.7293C18.9825 26.3616 18.9981 25.9703 19.0529 25.6025C19.3424 23.8576 20.3127 22.3552 22.2611 21.8857C22.668 21.7918 23.0827 21.7449 23.5053 21.6745C23.3253 18.2863 24.4208 15.3598 26.8387 12.9106ZM34.0141 20.7981C33.9749 20.6885 33.9436 20.5711 33.8889 20.4694C33.3255 19.4913 32.809 18.4819 32.183 17.5507C31.0954 15.9466 29.726 14.6086 28.075 13.5601C27.8872 13.4427 27.7698 13.4192 27.582 13.5992C26.7995 14.366 26.1422 15.2189 25.6415 16.1892C24.7729 17.8637 24.3973 19.6478 24.5303 21.5336C24.5381 21.6979 24.5538 21.831 24.7572 21.917C25.5945 22.2613 26.0562 23.0125 25.9701 23.9124C25.931 24.3584 25.7901 24.7888 25.7197 25.2269C25.6962 25.3678 25.6962 25.5399 25.7588 25.6573C26.2048 26.4867 26.7682 27.2379 27.4412 27.8874C27.8715 28.3021 27.715 28.2865 28.1924 27.9735C30.8059 26.252 32.6134 23.8654 33.9202 21.0563C33.9749 20.978 33.9906 20.8841 34.0141 20.7981ZM21.283 27.3084C21.283 27.3162 21.283 27.3162 21.283 27.324C21.5334 27.3005 21.7916 27.2849 22.042 27.2536C22.8871 27.1362 23.6539 26.8467 24.1782 26.1346C24.7025 25.4304 24.9294 24.6166 24.9842 23.7637C25.0233 23.1925 24.5851 22.7621 24.0139 22.7465C23.7713 22.7386 23.5209 22.723 23.2862 22.7543C21.6195 22.9343 20.6883 23.6385 20.2579 25.0704C20.1484 25.4226 20.078 25.7903 20.0232 26.1503C19.9293 26.7919 20.3831 27.3005 21.0248 27.3162C21.1109 27.3084 21.1969 27.3084 21.283 27.3084ZM23.5522 10.9074C23.0984 10.3832 22.6132 10.0389 22.0498 9.7963C20.9465 9.31116 19.7806 9.24074 18.6069 9.36593C18.2235 9.40506 17.8244 9.49113 17.4801 9.64763C17.2375 9.75718 16.995 9.99975 16.8854 10.2423C16.6585 10.7744 16.7524 11.3378 16.8463 11.9247C18.9903 10.9622 21.1969 10.6414 23.5522 10.9074Z" fill="white"/>
<path d="M29.507 18.3175C30.3364 18.3175 31.0172 19.0139 31.0016 19.8355C30.9859 20.6571 30.3208 21.3066 29.4992 21.3144C28.6854 21.3222 28.0125 20.6414 28.0125 19.8277C28.0046 18.9826 28.6697 18.3096 29.507 18.3175ZM29.5148 19.319C29.2331 19.3112 29.014 19.5225 29.0062 19.8042C28.9984 20.0859 29.2175 20.305 29.4992 20.305C29.7652 20.305 29.9843 20.0937 30 19.8355C30.0156 19.5616 29.7887 19.3269 29.5148 19.319Z" fill="white"/>
</svg>
