<svg width="40" height="40" viewBox="0 0 40 40" fill="none" xmlns="http://www.w3.org/2000/svg">
<path d="M5 29.7485C5 29.1226 5 28.4966 5 27.8707C5.01565 27.7689 5.04695 27.6672 5.05478 27.5577C5.22691 25.7424 5.50859 23.9585 6.58054 22.4014C5.92329 21.7128 5.44599 20.9148 5.20343 19.9915C5.11736 19.6707 5.0626 19.3499 5 19.0212C5 18.6926 5 18.3562 5 18.0275C5.01565 17.9884 5.03912 17.9571 5.03912 17.918C5.25038 16.2436 6.07977 14.9525 7.44905 13.9745C7.73855 13.7711 7.96546 13.4503 8.15325 13.1373C8.41928 12.6835 8.62271 12.1983 8.84962 11.7211C9.02176 11.369 9.26432 11.0716 9.63206 10.9777C10.0155 10.8838 10.125 10.6256 10.2502 10.3283C10.4223 9.90579 10.391 9.78842 10.0389 9.49892C9.23302 8.84949 8.90439 8.00446 9.11564 7.00293C9.3269 6.0014 9.96851 5.3598 10.9544 5.07812C11.017 5.06247 11.0796 5.03118 11.1422 5.0077C11.3926 5.0077 11.6508 5.0077 11.9011 5.0077C12.4019 5.14854 12.8948 5.31285 13.2548 5.70408C13.4113 5.87621 13.5443 5.89186 13.7555 5.82927C14.6945 5.55541 15.5395 5.75102 16.2359 6.43957C16.9244 7.12812 17.1435 7.98098 16.8618 8.91991C16.5723 9.86667 15.9151 10.4457 14.9448 10.6569C14.5067 10.7508 14.4284 10.8291 14.3815 11.2672C14.3658 11.3846 14.3424 11.5098 14.3658 11.6193C14.3971 11.7602 14.4363 11.9167 14.5302 12.0106C14.8197 12.3235 14.9996 12.6756 14.9996 13.106C14.9996 13.239 14.9996 13.3642 14.9996 13.505C18.325 10.8525 21.6191 10.8525 24.921 13.4816C24.9288 13.4424 24.9445 13.4111 24.9366 13.3877C24.8975 12.8087 25.0383 12.3079 25.5078 11.9245C25.5391 11.901 25.5626 11.8697 25.5782 11.8306C25.766 11.2985 25.453 10.7508 24.8975 10.6256C23.6691 10.3518 22.8006 9.1077 22.9883 7.88709C23.2309 6.27526 24.7175 5.35198 26.2824 5.82927C26.3607 5.85274 26.5015 5.86839 26.5406 5.82144C26.9553 5.36763 27.4796 5.14854 28.0586 4.99988C28.2933 4.99988 28.528 4.99988 28.7628 4.99988C29.0601 5.10942 29.3809 5.18766 29.6548 5.34415C31.1962 6.22831 31.3214 8.39568 29.9051 9.4911C29.5687 9.75713 29.5296 9.87449 29.6939 10.2657C29.7408 10.3831 29.7721 10.5161 29.8504 10.61C29.9286 10.7117 30.0382 10.8291 30.1555 10.8682C30.5859 11.0169 30.9067 11.2751 31.1101 11.6819C31.3057 12.0732 31.5091 12.4644 31.6813 12.8634C31.9082 13.3798 32.2525 13.7711 32.7141 14.0997C34.678 15.5081 35.4605 18.0275 34.6624 20.3201C34.3885 21.0947 33.9582 21.7676 33.4418 22.3153C33.7156 22.8943 34.0208 23.4264 34.2242 23.9819C34.8893 25.8441 35.0693 27.7768 34.9519 29.7485C34.8971 30.6875 34.7641 31.6107 34.3494 32.4714C33.9269 33.3399 33.254 33.8955 32.2681 33.9659C31.2588 34.0441 30.3903 33.692 29.6861 32.9644C29.6313 32.9018 29.5843 32.8313 29.5217 32.7453C28.8645 33.6138 28.0821 34.2397 27.0962 34.5527C25.1088 35.1943 23.1448 35.1943 21.2435 34.2319C20.4532 33.8329 19.6395 33.7859 18.8492 34.185C17.6834 34.7875 16.455 35.0378 15.1483 34.9752C13.8103 34.9126 12.5349 34.6231 11.463 33.7625C11.103 33.473 10.7901 33.1209 10.4928 32.8313C10.1485 33.0896 9.83549 33.3869 9.45992 33.5825C8.23149 34.2554 6.31451 34.2789 5.49294 32.1506C5.3834 31.8689 5.2895 31.5794 5.23473 31.2821C5.14084 30.8048 5.07824 30.2728 5 29.7485ZM9.63206 22.9804C9.8668 22.284 10.0859 21.619 10.3206 20.9617C10.4536 20.5783 10.704 20.4375 11.0013 20.5548C11.2987 20.6644 11.4004 20.9461 11.2517 21.3138C10.751 22.5892 10.3989 23.9037 10.1876 25.2573C9.91374 26.9552 9.93721 28.6375 10.3989 30.3041C10.8135 31.7907 11.596 33.0191 13.0905 33.5903C14.8118 34.2476 16.5488 34.2554 18.2311 33.4182C19.4204 32.8313 20.5784 32.8313 21.7677 33.4182C23.45 34.2476 25.187 34.2397 26.9084 33.5825C28.4107 33.0113 29.1853 31.7829 29.6078 30.2962C30.1946 28.1915 30.0773 26.0789 29.5765 23.9898C29.3574 23.0743 29.0288 22.1823 28.7471 21.2825C28.6454 20.9773 28.6924 20.7504 28.9114 20.6096C29.2009 20.414 29.5452 20.5392 29.6782 20.9069C29.9208 21.5877 30.1399 22.2684 30.3746 22.9491C30.7032 22.9491 31.204 22.7848 31.6891 22.5109C34.592 20.86 34.8032 16.8304 32.0882 14.8978C31.5561 14.5222 31.1492 14.0527 30.8754 13.4659C30.6798 13.0434 30.4685 12.6209 30.2729 12.1983C30.1399 11.9245 29.9364 11.8071 29.6313 11.8775C28.5593 12.1279 27.4874 12.3861 26.4155 12.6365C26.1259 12.7069 25.9851 12.8869 25.9929 13.1842C26.0008 13.5363 26.0164 13.8884 26.0008 14.2405C25.9929 14.4831 26.079 14.6552 26.2277 14.843C26.705 15.4533 27.1744 16.0871 27.6282 16.7209C27.816 16.9869 27.7534 17.2842 27.5187 17.4407C27.2918 17.5972 26.9945 17.5346 26.8067 17.2764C26.7363 17.1825 26.6737 17.0808 26.6111 16.9869C25.9225 15.9619 25.1479 15.0073 24.2011 14.2092C23.0588 13.2468 21.7834 12.6052 20.2654 12.5426C18.5597 12.4722 17.1357 13.1529 15.8681 14.2249C14.8431 15.0856 14.0294 16.134 13.3017 17.2451C13.1061 17.5424 12.8244 17.6128 12.574 17.4564C12.3158 17.292 12.2689 16.9947 12.4723 16.6896C12.7384 16.2905 12.9653 15.8524 13.3017 15.5237C13.9746 14.8821 14.1859 14.1232 14.0685 13.239C14.0685 13.2312 14.0685 13.2233 14.0685 13.2077C14.0607 12.8634 13.9511 12.7148 13.6069 12.6287C12.5662 12.3783 11.5256 12.1279 10.4771 11.8854C10.1093 11.7993 9.93721 11.8854 9.7729 12.2296C9.57729 12.6209 9.38168 13.0121 9.20172 13.4111C8.92004 14.0293 8.48969 14.5066 7.94198 14.9134C6.46317 16.001 5.82157 17.4798 6.12672 19.2873C6.42405 21.0556 7.48034 22.2527 9.17824 22.8552C9.29561 22.9178 9.46775 22.9413 9.63206 22.9804ZM7.3082 23.1369C7.25343 23.2151 7.16737 23.3325 7.10477 23.4655C6.96393 23.7628 6.80745 24.0602 6.69791 24.3731C6.04065 26.3058 5.87634 28.2932 6.07195 30.3119C6.13455 30.9613 6.25974 31.6029 6.58836 32.1897C6.86222 32.6827 7.26126 33.0113 7.84027 33.0191C8.63054 33.0348 9.27996 32.7296 9.7729 32.1037C9.89026 31.9628 9.90592 31.8376 9.82767 31.6577C9.05306 29.7876 8.84179 27.8394 9.07652 25.8363C9.15477 25.2104 9.26431 24.5922 9.35038 24.0289C8.6853 23.7315 8.02023 23.4499 7.3082 23.1369ZM30.6093 24.0367C30.6093 24.0289 30.6093 24.068 30.6172 24.0993C31.204 26.6892 31.1727 29.2399 30.1399 31.7281C30.1086 31.8142 30.132 31.9628 30.1868 32.0411C30.5467 32.5575 31.0475 32.8705 31.6735 32.98C32.4716 33.1209 33.0584 32.8626 33.4105 32.1271C33.5904 31.7594 33.7313 31.3525 33.8017 30.9457C34.1538 28.8644 33.9973 26.8065 33.4261 24.7878C33.254 24.1775 33.0271 23.5907 32.6672 23.1369C31.9786 23.442 31.3135 23.7315 30.6093 24.0367ZM27.3857 6.46304C27.5735 6.88556 27.7691 7.27678 27.9177 7.67583C28.0038 7.90274 27.8238 8.15312 27.5969 8.23136C27.3544 8.30961 27.0962 8.20007 26.9866 7.96533C26.9475 7.88709 26.9319 7.80102 26.9006 7.71495C26.6267 6.97163 25.8443 6.56476 25.0853 6.77602C24.3263 6.98728 23.8647 7.74625 24.029 8.52087C24.1542 9.13117 24.6237 9.56934 25.2966 9.70236C26.0633 9.85102 26.5015 10.344 26.5641 11.1264C26.5719 11.2594 26.5954 11.3924 26.6111 11.5489C27.4013 11.3611 28.1525 11.1812 28.9193 11.0012C28.8645 10.876 28.8332 10.7978 28.8019 10.7195C28.4498 9.88232 28.5985 9.29549 29.3105 8.73213C29.3966 8.66171 29.4748 8.59129 29.5452 8.51304C30.0851 7.90274 30.0225 6.94033 29.4122 6.40827C28.7941 5.86056 27.8786 5.91534 27.3857 6.46304ZM13.3643 11.5489C13.3878 11.3455 13.4034 11.1733 13.4269 11.0012C13.4973 10.3518 13.9668 9.8432 14.6084 9.718C14.7101 9.69453 14.8197 9.68671 14.9214 9.64758C15.4847 9.4598 15.8447 9.0764 15.9542 8.48175C16.0637 7.87927 15.8681 7.3785 15.383 7.01075C14.5458 6.37698 13.4034 6.77602 13.0435 7.80102C12.9183 8.16094 12.6836 8.31743 12.3941 8.23136C12.0968 8.1453 11.9559 7.84797 12.0968 7.49587C12.2376 7.15159 12.4332 6.82297 12.6132 6.46304C12.2689 6.13442 11.8307 5.95446 11.3143 6.04835C10.6884 6.16572 10.2737 6.54129 10.1172 7.15159C9.95286 7.80102 10.1641 8.34091 10.704 8.7556C11.283 9.20159 11.4943 9.78842 11.2987 10.4222C11.2439 10.61 11.1578 10.7821 11.0796 11.0012C11.8386 11.189 12.5897 11.369 13.3643 11.5489Z" fill="#113B28"/>
<path d="M11.9872 27.5108C12.0028 28.5045 12.128 29.4747 12.6053 30.3667C13.1843 31.4465 14.1076 31.9629 15.3048 32.0255C15.3517 32.0255 15.3986 32.0255 15.4534 32.0255C15.7742 32.0333 15.9933 32.2367 15.9933 32.5184C15.9933 32.8001 15.7742 33.0114 15.4534 33.0192C14.7805 33.0427 14.1389 32.9096 13.5286 32.6123C12.2454 31.9864 11.5334 30.9066 11.2439 29.5686C11.0717 28.7783 11.0561 27.949 10.9857 27.1352C10.97 26.9161 11.0404 26.7127 11.2595 26.5875C11.5725 26.4075 11.9559 26.6188 11.9872 26.9866C12.0028 27.1587 11.9872 27.3386 11.9872 27.5108Z" fill="#113B28"/>
<path d="M8.99048 20.5392C8.98266 20.8209 8.75575 21.0322 8.4819 21.0243C8.22369 21.0165 8.00461 20.7896 8.00461 20.5314C8.00461 20.2654 8.23934 20.0306 8.5132 20.0306C8.77923 20.0306 8.99831 20.2575 8.99048 20.5392Z" fill="#113B28"/>
<path d="M31.4778 20.0306C31.7517 20.0228 31.9864 20.2575 31.9864 20.5235C31.9864 20.7896 31.7517 21.0243 31.4778 21.0243C31.2118 21.0243 31.0006 20.813 30.9927 20.547C30.9927 20.2575 31.204 20.0306 31.4778 20.0306Z" fill="#113B28"/>
<path d="M7.50384 18.0276C7.78552 18.0276 8.0046 18.2467 7.99678 18.5284C7.99678 18.7944 7.7777 19.0135 7.51949 19.0213C7.25346 19.0291 7.0109 18.8022 7.00307 18.5284C6.99525 18.2623 7.22216 18.0276 7.50384 18.0276Z" fill="#113B28"/>
<path d="M32.5029 19.0213C32.2291 19.0291 32.0021 18.8022 31.9943 18.5283C31.9943 18.2545 32.1899 18.0432 32.456 18.0275C32.7298 18.0119 32.9724 18.2232 32.9802 18.497C33.0037 18.7709 32.7768 19.0134 32.5029 19.0213Z" fill="#113B28"/>
<path d="M8.99052 16.5096C8.99835 16.7913 8.77927 17.0182 8.50541 17.026C8.23938 17.026 7.99683 16.7913 7.99683 16.5253C7.99683 16.2671 8.20808 16.048 8.47411 16.0323C8.76362 16.0245 8.9827 16.2279 8.99052 16.5096Z" fill="#113B28"/>
<path d="M31.9943 16.5174C32.0021 16.7835 31.7674 17.026 31.4935 17.026C31.2353 17.026 31.0084 16.8147 31.0006 16.5487C30.985 16.2592 31.1884 16.0401 31.4779 16.0323C31.7517 16.0245 31.9865 16.2436 31.9943 16.5174Z" fill="#113B28"/>
</svg>
