<svg xmlns="http://www.w3.org/2000/svg" xmlns:xlink="http://www.w3.org/1999/xlink" version="1.1" id="Layer_1" x="0px" y="0px" width="793.7px" height="793.7px" viewBox="0 0 793.7 793.7" enable-background="new 0 0 793.7 793.7" xml:space="preserve">
	<path fill="#000000" d="M423.428,1.495C630.124,14.84,794.233,187.75,794.233,397.57c0,210.105-164.109,382.731-370.805,396.359v-57.92   c174.613-13.628,312.884-160.418,312.884-338.439c0-177.736-138.271-324.526-312.884-337.87V1.495L423.428,1.495z M423.428,520.793   l49.402,57.07h188.241L450.4,329.429L621.89,218.13H500.656l-77.228,50.255V520.793z M397.307,0.36   c8.801,0,17.603,0.567,26.121,1.135V59.7c-8.519-0.567-17.32-1.135-26.121-1.135C210.484,58.565,58.3,210.748,58.3,397.57   c0,186.822,152.185,339.29,339.007,339.29c8.801,0,17.603-0.283,26.121-0.851v57.92c-8.519,0.568-17.32,0.851-26.121,0.851   c-218.624,0-397.211-178.304-397.211-397.21C0.096,178.948,178.683,0.36,397.307,0.36L397.307,0.36z M423.428,268.385   l-95.968,62.179V218.13H186.065v360.016H327.46v-168.65l95.968,111.298V268.385z"/>
</svg>