<svg width="30" height="30" viewBox="0 0 30 30" fill="none" xmlns="http://www.w3.org/2000/svg">
<path d="M3.75 20.4987C3.85128 20.5031 3.95255 20.5119 4.05824 20.5119C11.3458 20.5119 18.6289 20.5119 25.9165 20.5119C26.0178 20.5119 26.1191 20.5119 26.2424 20.5119C26.282 21.0623 26.1675 21.5599 25.8989 22.0134C25.3617 22.9117 24.5603 23.3564 23.5123 23.3564C20.1877 23.3564 16.8632 23.3564 13.5387 23.3564C11.2093 23.3564 8.87991 23.3388 6.55054 23.3608C4.96533 23.3785 3.91292 22.2204 3.78082 21.0799C3.77642 21.0623 3.75881 21.0447 3.75 21.0227C3.75 20.8509 3.75 20.6748 3.75 20.4987Z" fill="white"/>
<path d="M14.3357 9.60921C14.3357 9.3362 14.3357 9.08961 14.3357 8.8166C13.9702 8.8166 13.6091 8.8166 13.2348 8.8166C13.2348 8.36306 13.2348 7.93593 13.2348 7.5C14.4193 7.5 15.5862 7.5 16.7663 7.5C16.7663 7.93593 16.7663 8.36746 16.7663 8.8122C16.3964 8.8122 16.0398 8.8122 15.6699 8.8122C15.6699 9.08081 15.6699 9.3318 15.6699 9.6004C18.8359 9.87781 21.3678 11.2913 23.2217 13.8761C24.3489 15.4481 24.9258 17.2226 25.0226 19.1777C18.3427 19.1777 11.6672 19.1777 4.96973 19.1777C5.11504 16.6238 6.05295 14.4265 7.83191 12.6079C9.60646 10.7937 11.7861 9.80736 14.3357 9.60921ZM8.85789 14.0786C7.85833 15.0209 7.36075 16.1878 7.09655 17.5C7.5501 17.5661 7.97282 17.6277 8.39994 17.6894C8.62011 16.6854 8.98999 15.7871 9.72535 15.0694C9.43914 14.7391 9.15732 14.4177 8.85789 14.0786Z" fill="white"/>
</svg>
