<svg width="18" height="18" viewBox="0 0 18 18" fill="none" xmlns="http://www.w3.org/2000/svg">
<path d="M8.16667 0.666626C12.3067 0.666626 15.6667 4.02663 15.6667 8.16663C15.6667 12.3066 12.3067 15.6666 8.16667 15.6666C4.02667 15.6666 0.666672 12.3066 0.666672 8.16663C0.666672 4.02663 4.02667 0.666626 8.16667 0.666626ZM8.16667 14C11.3892 14 14 11.3891 14 8.16663C14 4.94413 11.3892 2.33329 8.16667 2.33329C4.94417 2.33329 2.33334 4.94413 2.33334 8.16663C2.33334 11.3891 4.94417 14 8.16667 14ZM15.2375 14.0591L17.595 16.4158L16.4158 17.595L14.0592 15.2375L15.2375 14.0591Z" fill="#CCCCCC"/>
</svg>
