<svg width="24" height="24" viewBox="0 0 24 24" fill="none" xmlns="http://www.w3.org/2000/svg">
<path d="M6.90527 12.7164C6.90527 10.9742 6.90527 14.6166 6.91134 12.8743C6.91134 12.6983 6.87492 12.6133 6.6928 12.5526C5.03555 12.0427 3.88215 10.3733 4.00963 8.69173C4.14925 6.80379 5.46049 5.33472 7.26343 5.04941C9.27885 4.72767 11.1911 6.00855 11.6585 7.98147C12.1259 9.96047 10.9907 11.9577 9.0421 12.5647C8.87212 12.6194 8.84784 12.7043 8.84784 12.8561C8.84784 16.3527 8.84784 14.4708 8.84784 17.9674C8.84784 18.5927 8.42291 19.0176 7.83406 18.9994C7.29986 18.9812 6.91134 18.5563 6.91134 17.9674C6.90527 17.1054 6.91134 16.2434 6.91134 15.3753C6.90527 14.489 6.90527 13.6027 6.90527 12.7164ZM9.81306 8.86777C9.81306 7.79936 8.94497 6.93127 7.88263 6.93734C6.82029 6.93734 5.94613 7.8115 5.94613 8.87384C5.94006 9.94226 6.82636 10.8286 7.89477 10.8164C8.96318 10.8043 9.81913 9.94226 9.81306 8.86777Z" fill="#113B28"/>
<path d="M17.6943 11.2711C17.6943 13.0194 17.6943 9.38312 17.6882 11.1375C17.6882 11.3136 17.7428 11.3864 17.9067 11.435C19.5701 11.957 20.7295 13.6325 20.596 15.3201C20.4442 17.202 19.133 18.665 17.3422 18.9442C15.3207 19.2599 13.4206 17.9972 12.9471 16.0182C12.4736 14.0453 13.6149 12.0359 15.5574 11.4289C15.7274 11.3743 15.7578 11.2953 15.7578 11.1436C15.7517 7.64695 15.7517 9.52887 15.7578 6.03224C15.7578 5.41305 16.1706 4.98811 16.7473 5.00025C17.2997 5.00632 17.6943 5.43126 17.7003 6.03224C17.7064 6.89426 17.7003 7.75628 17.7003 8.62436C17.6943 9.50459 17.6943 10.3909 17.6943 11.2711ZM14.7865 15.1319C14.7926 16.2003 15.6606 17.0684 16.723 17.0623C17.7975 17.0563 18.6656 16.1761 18.6534 15.1016C18.6413 14.0392 17.755 13.1711 16.6987 13.1833C15.6303 13.1954 14.7804 14.0635 14.7865 15.1319Z" fill="#113B28"/>
</svg>
