<svg width="30" height="30" viewBox="0 0 30 30" fill="none" xmlns="http://www.w3.org/2000/svg">
<path d="M26.2505 9.41946C26.168 9.80472 26.1074 10.1955 25.9973 10.5698C25.7607 11.3788 25.3314 12.0833 24.737 12.6777C23.0913 14.3288 21.4622 15.991 19.7891 17.6091C17.8847 19.4529 14.599 19.5464 12.5516 17.5321C11.9627 16.9486 11.9186 16.0625 12.4525 15.4516C12.9644 14.8682 13.8835 14.7967 14.5164 15.303C14.8411 15.5672 15.1604 15.8314 15.5787 15.936C16.3822 16.1451 17.1087 16.002 17.7196 15.4406C18.215 14.9838 18.6828 14.4995 19.1561 14.0206C20.2789 12.8979 21.4072 11.7806 22.5299 10.6523C23.5592 9.61759 23.4271 7.98297 22.2603 7.16841C21.3741 6.55198 20.1633 6.66206 19.3653 7.4546C18.4737 8.33521 17.5875 9.21582 16.7124 10.1129C16.4923 10.3386 16.2831 10.3936 15.9914 10.2725C15.2539 9.98085 14.4834 9.85976 13.6964 9.85976C13.5147 9.85976 13.3661 9.80472 13.2836 9.6286C13.201 9.44698 13.2726 9.29837 13.3992 9.17179C14.7696 7.80685 16.1125 6.41439 17.5215 5.09348C19.5689 3.16715 22.9372 3.34327 24.836 5.4237C25.6121 6.27129 26.0744 7.25647 26.212 8.40126C26.2175 8.4673 26.2395 8.52784 26.2505 8.58839C26.2505 8.86357 26.2505 9.13876 26.2505 9.41946Z" fill="white"/>
<path d="M8.58334 26.25C8.0935 26.1345 7.59265 26.0574 7.11933 25.8868C4.85727 25.0832 3.41527 22.5735 3.81705 20.2069C4.01519 19.0401 4.52704 18.0494 5.36362 17.2183C6.90468 15.6772 8.44574 14.1252 9.99231 12.5896C11.792 10.8009 14.3898 10.4707 16.5198 11.7696C16.9711 12.0447 17.4059 12.353 17.6921 12.8098C18.0664 13.4097 17.9508 14.2077 17.4444 14.6535C16.8941 15.1434 16.074 15.1819 15.5071 14.7306C15.1714 14.4609 14.8467 14.1802 14.4119 14.0701C13.6413 13.872 12.9478 14.0096 12.3314 14.5104C12.2654 14.5655 12.1993 14.626 12.1388 14.6866C10.5812 16.2441 9.01814 17.8017 7.46056 19.3593C6.65151 20.1739 6.52492 21.3682 7.14134 22.2653C7.93939 23.4321 9.57402 23.5807 10.6032 22.5735C11.3462 21.847 12.0727 21.104 12.8103 20.3665C12.9368 20.2399 13.0744 20.1298 13.179 19.9922C13.4432 19.6455 13.7349 19.6015 14.1367 19.7666C14.7916 20.0363 15.4906 20.1243 16.2006 20.1353C16.2666 20.1353 16.3327 20.1298 16.3987 20.1408C16.7234 20.1794 16.861 20.4986 16.6574 20.7573C16.5583 20.8838 16.4373 20.9884 16.3217 21.104C15.0558 22.3644 13.8009 23.6357 12.5185 24.8796C11.7315 25.6391 10.7628 26.0519 9.67859 26.2005C9.60704 26.2115 9.53549 26.228 9.46945 26.2445C9.17224 26.25 8.88054 26.25 8.58334 26.25Z" fill="white"/>
</svg>
