<svg width="38" height="40" viewBox="0 0 38 40" fill="none" xmlns="http://www.w3.org/2000/svg">
<path d="M16.3905 5.02335C16.8912 5.07812 17.392 5.13289 17.8927 5.19548C21.2258 5.62582 24.2303 6.85422 26.9375 8.83375C27.2583 9.06848 27.3287 9.42057 27.1175 9.69442C26.9062 9.97609 26.5698 10.0074 26.2412 9.76484C24.5511 8.52861 22.7046 7.5897 20.7016 6.97941C19.1524 6.50996 17.5719 6.25958 15.9523 6.19699C15.8975 6.19699 15.8349 6.19699 15.7567 6.19699C15.5141 6.94029 15.2794 7.67577 15.0369 8.42689C15.6863 8.54426 16.3122 8.63815 16.9303 8.77116C20.3417 9.49099 23.4479 10.8368 26.0143 13.2623C28.3615 15.4844 29.8247 18.2228 30.6697 21.3134C30.9514 22.3384 31.1157 23.3868 31.3348 24.4275C31.3504 24.4901 31.3661 24.5527 31.3895 24.6387C32.1015 24.4118 32.7979 24.2006 33.4864 23.9658C33.5568 23.9424 33.6273 23.7937 33.6194 23.6998C33.5803 22.0176 33.2908 20.3823 32.7744 18.7862C32.1798 16.9553 31.3113 15.2575 30.1768 13.7083C30.122 13.6378 30.0751 13.5674 30.0203 13.497C29.7856 13.1606 29.8169 12.8241 30.0985 12.6207C30.3802 12.4173 30.7323 12.472 30.9592 12.8085C31.413 13.4657 31.8746 14.1229 32.2737 14.8115C33.9559 17.7143 34.7774 20.8674 34.8165 24.2162C34.8244 24.6387 34.6992 24.8108 34.2923 24.9439C32.9622 25.3664 31.6399 25.7967 30.3098 26.2036C30.0438 26.2818 29.942 26.3913 29.9499 26.6808C29.9655 27.8623 29.9655 29.0438 29.9577 30.2252C29.942 31.4693 29.0266 32.3847 27.8373 32.3612C26.7497 32.3378 25.8578 31.4771 25.8265 30.3974C25.803 29.6071 25.8187 28.8169 25.8187 28.0266C25.8187 27.9171 25.8187 27.8154 25.8187 27.6432C24.7702 27.9797 23.7531 28.3005 22.7359 28.6213C22.7359 29.9592 22.7437 31.2815 22.7359 32.596C22.7203 34.0122 21.4919 35.1154 20.0835 34.9902C18.8238 34.8806 17.8536 33.8244 17.8301 32.5021C17.8145 31.8448 17.8301 31.1954 17.8301 30.5382C17.8301 30.4287 17.8301 30.3269 17.8301 30.1783C17.5093 30.28 17.2277 30.3661 16.9382 30.4521C14.4109 31.2502 11.8837 32.0561 9.36429 32.8542C8.03417 33.2767 6.78229 32.4786 6.67275 31.125C6.64928 30.859 6.69622 30.5773 6.77446 30.3191C9.43471 22.0567 12.0949 13.7943 14.7708 5.53193C14.8334 5.3285 15.0447 5.17984 15.1855 4.99988C15.5689 5.02335 15.9758 5.02335 16.3905 5.02335ZM16.0618 29.4819C15.9601 29.4037 15.8819 29.3567 15.8193 29.302C14.5518 28.3631 14.1058 26.6965 14.7317 25.2803C15.3733 23.8406 16.9069 23.0426 18.4561 23.3399C19.8644 23.6137 20.9676 24.7561 21.1398 26.1175C21.3354 27.6432 20.5999 29.0046 19.2307 29.6384C19.0507 29.7245 18.9725 29.8105 18.9725 30.0218C18.9881 30.8277 18.9725 31.6414 18.9803 32.4551C18.9881 33.2454 19.5436 33.8322 20.2713 33.8322C21.0146 33.8322 21.5466 33.261 21.5466 32.4551C21.5466 31.1015 21.5466 29.7401 21.5466 28.3865C21.5466 27.878 21.6562 27.7293 22.1256 27.5806C23.4088 27.1738 24.692 26.7669 25.9673 26.36C26.6637 26.141 26.9688 26.36 26.9688 27.0877C26.9688 28.1518 26.9688 29.2159 26.9688 30.28C26.9688 30.6556 27.141 30.9294 27.4774 31.1015C27.7982 31.258 28.1033 31.2189 28.3928 31.0233C28.6823 30.8199 28.7684 30.5225 28.7684 30.1783C28.7684 28.8638 28.7684 27.5415 28.7684 26.227C28.7684 25.5307 28.831 25.4446 29.5039 25.2412C29.7308 25.1708 29.9655 25.0925 30.1846 25.0221C30.2159 24.3649 29.5665 21.4073 29.3004 20.977C27.5869 21.6264 26.249 20.7657 25.6857 19.7955C25.3649 19.24 25.224 18.6375 25.3101 17.9959C25.4353 17.0492 25.9439 16.3372 26.7576 15.8286C23.667 11.893 19.4419 10.2343 14.6691 9.56923C14.63 9.67877 14.5987 9.75701 14.5752 9.84308C13.6598 12.6911 12.7444 15.5391 11.8211 18.3793C11.7507 18.6062 11.7742 18.7079 11.9932 18.841C13.1825 19.5608 13.8163 20.9066 13.5659 22.268C13.2999 23.692 12.4392 24.6231 11.0387 24.9986C10.6005 25.116 10.1389 25.1003 9.66161 25.1551C9.39559 25.9767 9.12174 26.8295 8.84789 27.6823C8.52709 28.6838 8.19848 29.6853 7.87769 30.6869C7.68208 31.3206 8.04982 31.8292 8.70705 31.8057C8.67576 30.2956 9.30952 29.1924 10.7883 28.7699C12.1888 28.3709 13.2842 28.9342 14.0745 30.1392C14.7004 29.9435 15.3185 29.7479 15.9367 29.5523C15.9601 29.5445 15.9914 29.521 16.0618 29.4819ZM17.8066 24.4509C16.5939 24.4509 15.6237 25.4133 15.6237 26.6182C15.6237 27.8154 16.6017 28.7856 17.8066 28.7934C19.0194 28.7934 20.0209 27.7997 20.0131 26.6026C19.9974 25.4055 19.0194 24.4509 17.8066 24.4509ZM11.3595 19.8503C10.9213 21.2039 10.491 22.5575 10.045 23.9189C11.0856 24.0128 12.0558 23.3321 12.3453 22.3462C12.627 21.376 12.2045 20.2884 11.3595 19.8503ZM27.4852 16.791C26.8515 17.1196 26.5228 17.5734 26.4681 18.1994C26.4133 18.9036 26.7028 19.4591 27.3209 19.8112C27.8451 20.1085 28.385 20.1163 29.0031 19.8033C28.4946 18.794 27.9938 17.8003 27.4852 16.791ZM12.8695 30.5225C12.4314 29.881 11.5785 29.6541 10.8744 29.9592C10.2484 30.233 9.81027 30.9138 9.92763 31.4536C10.8978 31.1485 11.868 30.8433 12.8695 30.5225Z" fill="#113B28"/>
<path d="M29.2613 11.0792C29.2613 11.3922 29.0109 11.6582 28.6901 11.666C28.3537 11.6739 28.0955 11.4157 28.0955 11.0792C28.0955 10.7584 28.3537 10.5081 28.6745 10.5081C28.9953 10.5081 29.2613 10.7663 29.2613 11.0792Z" fill="#113B28"/>
<path d="M17.971 18.4498C15.9993 18.442 14.4344 16.8693 14.4423 14.9132C14.4501 12.965 16.054 11.3845 18.0101 11.408C19.9583 11.4314 21.5388 13.0119 21.531 14.9367C21.531 16.8849 19.927 18.4654 17.971 18.4498ZM17.9788 17.284C19.2933 17.284 20.3574 16.2355 20.3574 14.9367C20.3574 13.6457 19.2855 12.5816 17.9866 12.5816C16.68 12.5816 15.6159 13.6301 15.6159 14.9289C15.6159 16.2434 16.6643 17.284 17.9788 17.284Z" fill="#113B28"/>
<path d="M21.5074 19.021C22.8532 19.0288 23.9721 19.7878 24.4493 20.9379C24.9188 22.0724 24.6528 23.4339 23.7921 24.3024C23.4791 24.6153 23.1662 24.6232 22.8532 24.3024C21.7187 23.1365 20.5842 21.9629 19.4496 20.7893C19.1367 20.4607 19.1602 20.132 19.5044 19.8269C20.1069 19.287 20.8189 19.0366 21.5074 19.021ZM20.7328 20.4294C21.5778 21.3057 22.4229 22.1742 23.2679 23.0427C23.6982 22.2915 23.5574 21.3604 22.9549 20.758C22.3603 20.1712 21.437 20.0225 20.7328 20.4294Z" fill="#113B28"/>
</svg>
