<svg width="30" height="30" viewBox="0 0 30 30" fill="none" xmlns="http://www.w3.org/2000/svg">
<path d="M6 20.618C6 20.4208 6 20.2188 6 20.0169C6.08923 19.5332 6.28648 19.0964 6.54008 18.6737C7.58266 16.9408 8.61585 15.2032 9.64904 13.4655C10.6587 11.7702 11.6731 10.0701 12.6782 8.37473C12.9083 7.98493 13.1995 7.65149 13.5845 7.41198C14.8619 6.60891 16.4963 7.01279 17.2899 8.33716C18.7082 10.7135 20.1218 13.0898 21.5401 15.4662C22.2258 16.6121 22.9067 17.7627 23.5924 18.9086C23.9822 19.5567 24.1043 20.2517 23.907 20.989C23.5783 22.2007 22.5686 22.9568 21.2724 22.9568C17.088 22.9568 12.9083 22.9568 8.72386 22.9568C8.65342 22.9568 8.58297 22.9568 8.51253 22.9521C7.44177 22.9004 6.53538 22.2382 6.16907 21.2238C6.09862 21.0266 6.05636 20.82 6 20.618ZM13.9462 13.4327C13.9462 14.1183 13.9415 14.804 13.9509 15.4943C13.9509 15.6258 13.9696 15.7667 14.0072 15.8935C14.1669 16.3866 14.6694 16.6825 15.1813 16.598C15.6697 16.5181 16.0501 16.0814 16.0548 15.5742C16.0595 14.1653 16.0595 12.7564 16.0548 11.3475C16.0548 10.7323 15.5899 10.2626 14.9934 10.2673C14.4017 10.272 13.9462 10.7417 13.9462 11.3616C13.9415 12.0472 13.9462 12.7423 13.9462 13.4327ZM15.0075 20.8387C15.8857 20.8341 16.5902 20.1249 16.5808 19.242C16.5761 18.3779 15.867 17.6687 15.0028 17.664C14.1246 17.664 13.4108 18.3873 13.4202 19.2702C13.4249 20.139 14.1387 20.8434 15.0075 20.8387Z" fill="white"/>
</svg>
