<?xml version="1.0" encoding="UTF-8"?><svg id="Layer_2" xmlns="http://www.w3.org/2000/svg" viewBox="0 0 46 43.41"><defs><style>.cls-1{fill:none;stroke:#505050;stroke-miterlimit:10;stroke-width:2px;}</style></defs><g id="icons"><g><line class="cls-1" x1="23" y1="26" x2="22" y2="26"/><path class="cls-1" d="M7,19.1c-.5-.55-1-1.1-1-1.89,0-1.59,2.03-2.85,2.03-4.43s-2.97-5.31-1.65-6.44c1.23-1.22,5.26,1.74,6.98,1.74s3.09-2.09,4.81-2.09c1.72,0,2.9,2.09,4.61,2.09s2.9-2.09,4.61-2.09,3.09,2.09,4.81,2.09c1.72,0,6.41-2.96,7.48-1.74,1.15,1.13-1.64,4.85-1.64,6.44,0,1.59,1.97,2.63,1.97,4.21s-1.97,2.63-1.97,4.21,2.8,5.4,1.64,6.46c-1.07,1.14-5.76-1.63-7.48-1.63s-3.09,1.95-4.81,1.95-3.09-1.95-4.81-1.95"/><polyline class="cls-1" points="17 29 17 41 14 38 11 41 11 29"/><path class="cls-1" d="M19,25c0,2.76-2.24,5-5,5-2.76,0-5-2.24-5-5s2.24-5,5-5c2.76,0,5,2.24,5,5Z"/><line class="cls-1" x1="16" y1="13" x2="30" y2="13"/><line class="cls-1" x1="19" y1="17" x2="27" y2="17"/><polyline class="cls-1" points="8 33 1 33 1 1 45 1 45 33 20 33"/></g></g></svg>