<svg width="40" height="40" viewBox="0 0 40 40" fill="none" xmlns="http://www.w3.org/2000/svg">
<path d="M9 27.1794C9 25.4671 9 23.7548 9 22.0425C9 19.9909 9.56454 18.109 10.7259 16.4128C11.855 14.7812 12.4034 12.9801 12.3872 10.9931C12.3711 9.23235 12.3872 7.46349 12.3872 5.7027C12.3872 5.13731 12.5243 5 13.0727 5C13.9115 5 14.7422 5 15.5809 5C16.1132 5 16.2503 5.14539 16.2503 5.68655C16.2503 7.51195 16.2503 9.33735 16.2503 11.1628C16.2503 13.0285 16.7584 14.7409 17.8149 16.2755C19.0488 18.0605 19.6456 20.0394 19.6295 22.2121C19.6133 25.7014 19.6295 29.1906 19.6214 32.6718C19.6214 34.1257 18.7423 34.998 17.2907 34.998C15.2906 34.998 13.2905 34.998 11.2824 34.998C9.8952 34.9899 9 34.1014 9 32.7122C9 30.8626 9 29.021 9 27.1794ZM9.96778 30.1518C10.5323 30.1518 11.0404 30.1599 11.5566 30.1518C12.8227 30.1356 12.4759 30.3052 13.1534 29.336C13.1615 29.3279 13.1615 29.3198 13.1695 29.3118C13.7583 28.5041 14.8631 28.496 15.4519 29.3037C15.5567 29.4491 15.6696 29.5945 15.7503 29.756C15.9116 30.0549 16.1374 30.176 16.4842 30.1599C17.1132 30.1356 17.7504 30.1518 18.3875 30.1518C18.4762 30.1518 18.5568 30.1437 18.6456 30.1356C18.6536 30.071 18.6536 30.0306 18.6536 29.9902C18.6536 27.2198 18.6697 24.4494 18.6375 21.6709C18.6294 21.0248 18.452 20.3786 18.3633 19.7324C18.3391 19.5386 18.2423 19.4901 18.0568 19.4982C17.7262 19.5144 17.3874 19.5386 17.0648 19.4982C16.3309 19.4013 15.7664 19.5871 15.468 20.3221C15.4599 20.3382 15.4438 20.3544 15.4357 20.3705C14.8551 21.154 13.7502 21.154 13.1695 20.3544C13.0324 20.1686 12.9356 19.9425 12.7743 19.7809C12.6453 19.6517 12.4518 19.5224 12.2824 19.5144C11.7017 19.4821 11.113 19.5063 10.5323 19.4982C10.363 19.4982 10.2742 19.5386 10.2501 19.7163C10.1533 20.4755 9.98391 21.2267 9.97585 21.9859C9.94359 24.5948 9.95972 27.2037 9.95972 29.8206C9.96778 29.9256 9.96778 30.0306 9.96778 30.1518ZM13.347 11.7766C13.3308 11.8897 13.3147 11.9785 13.3066 12.0674C13.1615 13.8443 12.5485 15.4516 11.5485 16.9217C11.2501 17.3578 11.0162 17.8424 10.7581 18.3109C10.7259 18.3755 10.7097 18.4482 10.6856 18.5371C11.1533 18.5371 11.5888 18.5613 12.0163 18.529C12.7985 18.4724 13.3389 18.7794 13.7341 19.4498C14.1857 20.1928 14.4276 20.2009 14.8712 19.4659C15.2744 18.7874 15.8229 18.4724 16.6132 18.529C17.0487 18.5613 17.4842 18.5371 18.0246 18.5371C17.6374 17.8909 17.3149 17.3093 16.96 16.752C16.4519 15.9605 16.0003 15.1366 15.7503 14.232C15.5325 13.4324 15.3874 12.6085 15.2019 11.7685C14.6373 11.7766 14.0083 11.7766 13.347 11.7766ZM9.96778 31.121C9.96778 31.7591 9.95165 32.3487 9.97585 32.9464C10 33.536 10.492 34.0126 11.0807 34.0207C13.234 34.0287 15.3874 34.0287 17.5407 34.0207C18.1133 34.0207 18.6052 33.5764 18.6456 33.0191C18.6859 32.3972 18.6536 31.7753 18.6536 31.1291C18.5326 31.1291 18.4359 31.1291 18.3391 31.1291C17.6536 31.1291 16.9681 31.1291 16.2906 31.1291C15.7825 31.1291 15.3793 30.9191 15.089 30.4991C14.9519 30.2972 14.8228 30.0952 14.6857 29.9014C14.468 29.6106 14.1776 29.6106 13.9599 29.8933C13.8389 30.0549 13.726 30.2245 13.6212 30.3941C13.2986 30.911 12.8469 31.1533 12.234 31.1372C11.492 31.1129 10.742 31.121 9.96778 31.121ZM15.2664 8.85273C15.2664 7.89157 15.2664 6.93848 15.2664 5.98539C14.6212 5.98539 14.0002 5.98539 13.3711 5.98539C13.3711 6.95463 13.3711 7.90772 13.3711 8.85273C14.0083 8.85273 14.6293 8.85273 15.2664 8.85273ZM15.2503 10.7912C15.2503 10.4762 15.2503 10.1612 15.2503 9.8462C14.6131 9.8462 13.9841 9.8462 13.3631 9.8462C13.3631 10.1693 13.3631 10.4762 13.3631 10.7912C14.0083 10.7912 14.6131 10.7912 15.2503 10.7912Z" fill="#113B28"/>
<path d="M26.3878 34.998C25.3152 34.998 24.2345 34.998 23.1619 34.998C22.5489 34.998 22.1134 34.6507 22.0489 34.1095C21.9844 33.5603 22.3312 33.1241 22.9522 32.9868C24.1861 32.7041 24.9361 31.7591 24.9442 30.491C24.9442 29.0776 24.9442 27.6722 24.9442 26.2587C24.9442 25.7095 24.8313 25.1925 24.5168 24.7402C24.3474 24.4979 24.1297 24.2718 23.8877 24.1183C22.4118 23.1571 21.6054 21.8163 21.565 20.0475C21.5328 18.3594 21.8715 16.7278 22.4925 15.1528C22.8151 14.329 23.1538 13.5132 23.4764 12.6893C23.5974 12.3824 23.7829 12.2532 24.1135 12.2532C25.6458 12.2613 27.1701 12.2613 28.7024 12.2532C28.9605 12.2532 29.1702 12.3259 29.2589 12.5763C29.7912 13.9978 30.3718 15.4032 30.8154 16.849C31.1864 18.0605 31.3235 19.3367 31.1703 20.6129C30.9848 22.091 30.2509 23.254 28.9847 24.0294C28.2266 24.4979 27.8879 25.1925 27.8556 26.0083C27.8072 27.5752 27.8153 29.1503 27.8475 30.7253C27.8717 31.8318 28.6944 32.7284 29.8557 32.9868C30.1783 33.0595 30.4364 33.2049 30.5977 33.4957C30.9767 34.1742 30.5009 34.9819 29.7025 34.9899C28.5976 35.0061 27.4927 34.998 26.3878 34.998ZM30.2589 19.4821C30.2025 19.0136 30.1622 18.5532 30.0976 18.0928C29.8638 16.4128 29.1299 14.9024 28.525 13.3516C28.5008 13.287 28.3798 13.2224 28.3072 13.2224C27.033 13.2143 25.7507 13.2143 24.4764 13.2224C24.4039 13.2224 24.2829 13.2951 24.2587 13.3597C23.7345 14.7086 23.0893 16.0171 22.807 17.4467C22.7102 17.9313 22.6457 18.424 22.5651 18.9167C22.6377 18.9167 22.6538 18.9167 22.6618 18.9167C22.7344 18.8682 22.8151 18.8198 22.8877 18.7632C23.5812 18.2948 24.3474 18.0525 25.1861 18.0525C26.0975 18.0525 26.9282 18.3352 27.6621 18.8763C28.4201 19.4579 29.2912 19.579 30.2589 19.4821ZM30.2509 20.4998C30.1299 20.4917 30.0654 20.4756 30.0089 20.4836C28.8476 20.5483 27.8233 20.2252 26.8798 19.5386C26.2265 19.0702 25.4684 18.949 24.6619 19.0702C23.8474 19.1913 23.2345 19.6921 22.6215 20.1767C22.5651 20.2252 22.5489 20.3544 22.557 20.4433C22.7748 22.2283 24.1377 23.5771 26.0007 23.8437C27.533 24.0698 29.2831 23.036 29.9363 21.5175C30.0654 21.1944 30.138 20.8552 30.2509 20.4998ZM25.7023 24.7887C25.7749 25.241 25.8878 25.6852 25.8959 26.1295C25.92 27.6318 25.92 29.1341 25.9039 30.6284C25.8878 32.1953 24.7829 33.5441 23.2586 33.8915C23.1861 33.9076 23.1215 33.9318 23.049 33.9561C23.049 33.9642 23.057 33.9803 23.057 33.9884C25.2749 33.9884 27.4927 33.9884 29.7105 33.9884C29.646 33.9238 29.5734 33.8995 29.5008 33.8834C28.0492 33.5361 26.8959 32.2599 26.8959 30.7818C26.8959 28.7787 26.6862 26.7675 27.0733 24.7725C26.8556 24.7887 26.6217 24.8129 26.3797 24.8129C26.1459 24.8291 25.9039 24.8048 25.7023 24.7887Z" fill="#113B28"/>
<path d="M14.1696 27.7367C13.3228 27.7125 12.4356 27.4056 11.7259 26.6948C10.6775 25.6286 10.6775 24.0536 11.7178 22.9794C13.0002 21.6709 15.3067 21.574 16.6939 22.7775C18.1455 24.0375 17.9842 26.0729 16.3632 27.139C15.7664 27.5267 15.0486 27.7367 14.1696 27.7367ZM14.2986 26.7675C14.9599 26.7513 15.5567 26.5817 16.0648 26.1617C16.9439 25.4348 16.9519 24.2555 16.0809 23.5125C15.097 22.6725 13.4599 22.6886 12.5001 23.5609C11.7098 24.2717 11.7017 25.3702 12.484 26.089C12.9921 26.5575 13.6131 26.7513 14.2986 26.7675Z" fill="#113B28"/>
</svg>
