<svg width="40" height="40" viewBox="0 0 40 40" fill="none" xmlns="http://www.w3.org/2000/svg">
<path d="M27.2749 26.7845C28.0779 27.5621 28.6019 28.4327 28.8639 29.4638C28.8808 29.5484 28.94 29.6413 28.9146 29.709C28.8555 29.8695 28.7963 30.0978 28.6611 30.1569C28.5343 30.2161 28.2638 30.1569 28.1624 30.0555C25.8888 27.7481 22.66 27.5621 20.1836 29.6075C20.023 29.7428 19.9638 29.878 19.9638 30.0893C19.9722 31.5008 19.9722 32.9123 19.9722 34.3238C19.9722 34.4168 19.9807 34.5182 19.9638 34.6112C19.9215 34.8479 19.7778 35 19.5327 35C19.2792 35 19.1101 34.8563 19.0932 34.6028C19.0679 34.383 19.0848 34.1632 19.0848 33.935C19.0848 32.6418 19.0848 31.3402 19.0763 30.047C19.0763 29.9287 19.0256 29.7681 18.9411 29.6921C16.845 27.7903 13.65 27.7058 11.4609 29.4892C11.2834 29.6329 11.1228 29.8019 10.9707 29.9794C10.8017 30.1823 10.6073 30.2837 10.3622 30.1654C10.117 30.047 10.0917 29.8188 10.1508 29.5653C10.3875 28.5764 10.8608 27.7227 11.5624 26.9958C11.6215 26.9366 11.706 26.9113 11.7821 26.869C11.7568 26.8352 11.7314 26.8014 11.706 26.7676C11.63 26.7845 11.5539 26.793 11.4863 26.8099C10.8693 27.0127 10.3199 27.3424 9.84657 27.7988C9.65217 27.9847 9.44932 28.0946 9.19576 27.934C8.94219 27.7734 8.976 27.5368 9.06897 27.2832C9.77895 25.4322 11.0214 24.1643 13.033 23.8347C14.3009 23.6234 15.518 23.8854 16.6421 24.4855C17.3774 24.8828 18.0536 25.3984 18.7551 25.8548C18.8481 25.9139 18.9326 25.99 19.051 26.083C19.051 25.3392 19.051 24.6377 19.051 23.9277C18.5945 23.8685 18.1381 23.8432 17.6817 23.7502C15.6363 23.3276 14.4953 22.0682 14.267 19.989C14.2248 19.6086 14.2079 19.2283 14.2079 18.8564C14.2079 18.2901 14.3262 18.1802 14.8925 18.1549C14.9686 18.1549 15.0362 18.1464 15.1461 18.1464C15.1123 18.0703 15.0869 18.0027 15.0531 17.952C14.3431 16.8786 14.1656 15.6699 14.2163 14.419C14.2332 14.0894 14.3938 13.9541 14.7319 13.9372C14.8671 13.9288 14.9939 13.9372 15.07 13.9372C14.8333 13.3118 14.5375 12.7117 14.3854 12.0778C14.2501 11.503 14.2417 10.886 14.2163 10.2944C14.1994 9.8633 14.3769 9.72807 14.8164 9.70271C15.687 9.66045 16.5322 9.80414 17.3521 10.0831C17.3098 9.61819 17.2168 9.16178 17.2253 8.71381C17.2422 7.80943 17.6225 7.01493 18.155 6.30495C18.4678 5.89924 18.8397 5.52735 19.1947 5.15546C19.3721 4.96951 19.6004 4.94415 19.7948 5.11319C20.8935 6.09364 21.7387 7.22623 21.8148 8.76452C21.8317 9.18713 21.7303 9.61819 21.688 10.0323C22.1614 9.93937 22.6685 9.82104 23.1841 9.74497C23.5137 9.69426 23.8602 9.69426 24.1899 9.70271C24.6716 9.70271 24.8153 9.85485 24.8238 10.3282C24.8491 11.596 24.6378 12.8047 23.8433 13.9372C24.0293 13.9372 24.1561 13.9288 24.2828 13.9372C24.6463 13.9541 24.8069 14.0978 24.8238 14.4613C24.866 15.7206 24.6885 16.9209 23.9617 17.9858C23.9363 18.0281 23.9194 18.0703 23.8771 18.1464C24.0462 18.1549 24.1814 18.1633 24.3082 18.1718C24.6378 18.1887 24.7984 18.3239 24.8153 18.6535C24.866 19.7523 24.7308 20.8173 24.2068 21.8062C23.5475 23.0402 22.4403 23.5896 21.1217 23.8009C20.7498 23.8601 20.3695 23.8854 19.9807 23.9192C19.9807 24.6292 19.9807 25.3307 19.9807 26.0914C20.099 25.9985 20.192 25.9224 20.285 25.8463C21.4345 24.9081 22.6769 24.1474 24.1561 23.877C26.734 23.4037 28.9315 24.6546 29.9035 27.1226C30.0134 27.3931 30.174 27.6889 29.8528 27.9256C29.5316 28.1538 29.3119 27.9086 29.0921 27.7058C28.5596 27.2156 27.7989 26.8268 27.2749 26.7845ZM23.9363 10.5733C22.7615 10.6324 21.6289 10.7761 20.8175 11.7228C20.1244 12.5342 19.9892 13.5231 19.9722 14.5458C22.584 14.5204 23.9363 13.3456 23.9363 10.5733ZM15.0954 10.6071C15.163 11.7988 15.3067 12.9399 16.2871 13.7428C17.0901 14.4021 18.0621 14.5289 19.0679 14.5542C19.0594 12.0017 17.8846 10.5648 15.0954 10.6071ZM15.1292 14.8332C15.0869 17.4956 16.5069 18.8395 19.0594 18.7465C19.0932 16.1517 17.7916 14.8078 15.1292 14.8332ZM19.9976 18.7972C21.1725 18.7296 22.305 18.5859 23.1164 17.6393C23.8011 16.8363 23.9279 15.8559 23.9532 14.8416C21.2654 14.8078 19.9638 16.1602 19.9976 18.7972ZM19.9976 23.0149C21.164 22.9726 22.2797 22.8205 23.0911 21.8907C23.7926 21.0878 23.9279 20.0904 23.9532 19.0677C21.2908 19.0254 19.9553 20.3778 19.9976 23.0149ZM15.1292 19.0677C14.9094 21.4343 16.9548 23.4459 19.0594 22.9557C19.0848 20.3609 17.7578 19.0085 15.1292 19.0677ZM19.5412 6.08519C17.6902 7.8686 17.6056 9.80414 19.5327 11.6467C21.5613 9.67736 21.2739 7.84324 19.5412 6.08519ZM20.0061 28.0861C22.4149 25.9055 25.0943 24.9166 28.3652 26.1675C27.1819 24.8152 25.7704 24.4348 24.1561 24.7898C22.7023 25.1025 21.5359 25.9393 20.4287 26.8859C20.0483 27.2156 19.8624 27.5621 20.0061 28.0861ZM10.7087 26.1591C13.9628 24.9081 16.6506 25.9055 19.1017 28.0608C19.0763 27.7565 19.1017 27.3677 18.9326 27.2156C18.248 26.6155 17.538 26.0238 16.7604 25.542C15.6025 24.8236 14.3347 24.4686 12.957 24.756C12.061 24.9419 11.3257 25.3899 10.7087 26.1591ZM16.7351 27.5029C16.7435 27.4691 16.7604 27.4353 16.7689 27.41C16.2787 27.1987 15.7884 27.0043 15.2982 26.7845C14.1741 26.2858 13.2359 26.6493 12.3907 27.4269C12.2554 27.5452 12.1371 27.6804 12.0188 27.8157C11.9258 27.9171 11.8582 28.027 11.7737 28.1369C13.3711 27.3508 15.0024 27.0803 16.7351 27.5029ZM27.3256 28.2129C26.8946 27.4691 25.8549 26.7 25.1281 26.5394C25.052 26.5225 24.959 26.514 24.8829 26.5394C24.173 26.7592 23.463 26.9789 22.753 27.2071C22.6009 27.2578 22.4572 27.3677 22.3135 27.4438C24.0631 27.0719 25.6944 27.3508 27.3256 28.2129Z" fill="#113B28"/>
</svg>
