<svg width="40" height="40" viewBox="0 0 40 40" fill="none" xmlns="http://www.w3.org/2000/svg">
<path d="M35 30.5069C34.9452 30.6399 34.9061 30.7807 34.8357 30.9059C34.4836 31.618 33.9045 31.9466 33.1142 31.9466C31.1268 31.9466 29.1315 31.9466 27.144 31.9466C24.7027 31.9466 22.2613 31.9466 19.82 31.9466C19.2019 31.9466 18.9593 31.5476 19.2175 30.992C19.2253 30.9842 19.2254 30.9764 19.2332 30.9685C19.5931 30.1939 19.3975 29.3253 18.7402 28.8089C18.1142 28.3081 17.1909 28.3159 16.5728 28.8167C15.9077 29.3488 15.7199 30.2017 16.0876 30.9764C16.3615 31.5554 16.1268 31.9466 15.493 31.9466C12.6135 31.9466 9.73395 31.9544 6.85446 31.9466C5.74335 31.9466 5.01565 31.1954 5.00782 30.0765C5.00782 28.6446 5.00782 27.2048 5.00782 25.7729C5.00782 25.1078 5.11737 24.9748 5.78247 24.8965C6.62754 24.7948 7.28482 24.1297 7.34742 23.2925C7.41002 22.4396 6.86228 21.6728 6.02504 21.4537C5.89984 21.4224 5.77465 21.4145 5.64946 21.3989C5.19562 21.3519 5.00782 21.1485 5.00782 20.6947C5.00782 19.208 5.01565 17.7291 5 16.2424C5 15.8825 5.15649 15.6634 5.47731 15.5225C7.20657 14.7635 8.93584 14.0045 10.6651 13.2377C13.9828 11.7745 17.3083 10.3269 20.6103 8.84803C21.8075 8.30813 23.036 8.25335 24.3036 8.40985C26.5649 8.68371 28.6776 9.36446 30.6025 10.5929C32.1361 11.571 33.4742 12.7604 34.3505 14.3801C34.6166 14.8574 34.7731 15.3973 34.9843 15.9059C35 20.7807 35 25.6477 35 30.5069ZM33.8263 16.7432C24.5931 16.7432 15.3991 16.7432 6.19719 16.7432C6.19719 17.9404 6.19719 19.1219 6.19719 20.2878C7.58999 20.6868 8.46636 21.7275 8.5133 23.0264C8.56808 24.4505 7.7856 25.4677 6.17371 26.0546C6.17371 26.1407 6.17371 26.2346 6.17371 26.3285C6.17371 27.5491 6.17371 28.7698 6.17371 29.9904C6.17371 30.5851 6.3615 30.7729 6.964 30.7729C9.46009 30.7729 11.964 30.7729 14.4601 30.7729C14.5618 30.7729 14.6635 30.7651 14.7653 30.7573C14.4523 28.5742 16.1268 27.3066 17.543 27.2596C19.0297 27.2048 20.8685 28.4959 20.5477 30.7807C20.6573 30.7807 20.759 30.7807 20.8685 30.7807C24.9218 30.7807 28.9671 30.7807 33.0203 30.7807C33.6385 30.7807 33.8185 30.5929 33.8185 29.9748C33.8185 25.679 33.8185 21.3832 33.8185 17.0875C33.8263 16.9779 33.8263 16.8762 33.8263 16.7432ZM33.6307 15.5303C33.5368 15.3269 33.4664 15.1548 33.3725 14.9983C32.7074 13.7933 31.7527 12.8543 30.6573 12.0562C28.7324 10.6477 26.5571 9.8809 24.2019 9.59138C23.1612 9.46618 22.1518 9.46618 21.1659 9.90437C17.457 11.5554 13.7324 13.1829 10.0156 14.8261C9.52269 15.0452 9.02973 15.2643 8.53677 15.4834C8.5446 15.499 8.5446 15.5147 8.55243 15.5303C16.8858 15.5303 25.2269 15.5303 33.6307 15.5303Z" fill="#113B28"/>
<path d="M24.7261 28.4333C23.1455 28.4724 21.7918 27.1657 21.7605 25.5773C21.7292 23.9419 23.0046 22.6117 24.6322 22.5804C26.2284 22.5491 27.5743 23.8245 27.6134 25.4129C27.6604 27.0561 26.3771 28.3942 24.7261 28.4333ZM24.687 23.7541C23.7167 23.7541 22.9342 24.5366 22.9342 25.5068C22.9342 26.4693 23.7167 27.2596 24.6791 27.2596C25.6494 27.2674 26.4475 26.4615 26.4475 25.4912C26.4397 24.5288 25.6494 23.7463 24.687 23.7541Z" fill="#113B28"/>
<path d="M11.2206 21.3911C11.2206 20.1 12.2847 19.0594 13.5836 19.0672C14.8825 19.075 15.9154 20.1313 15.9076 21.4303C15.8998 22.7057 14.8434 23.7464 13.5602 23.7464C12.2691 23.7464 11.2128 22.6822 11.2206 21.3911ZM13.5445 20.2409C12.8951 20.2487 12.3786 20.773 12.3865 21.4224C12.3943 22.0641 12.9342 22.5883 13.568 22.5805C14.2096 22.5727 14.7339 22.0406 14.7261 21.399C14.7261 20.7417 14.194 20.2331 13.5445 20.2409Z" fill="#113B28"/>
<path d="M28.2004 17.8934C29.1706 17.8855 29.9609 18.668 29.9687 19.6305C29.9766 20.6085 29.1784 21.4067 28.2082 21.3988C27.2457 21.391 26.4554 20.6086 26.4554 19.6461C26.4476 18.6837 27.2301 17.9012 28.2004 17.8934ZM28.216 19.0671C27.8952 19.0671 27.637 19.3096 27.6213 19.6305C27.6135 19.9591 27.8795 20.233 28.2082 20.2251C28.529 20.2251 28.7872 19.9591 28.7872 19.6461C28.7872 19.3253 28.5368 19.0749 28.216 19.0671Z" fill="#113B28"/>
<path d="M32.6525 27.2831C32.6525 27.8309 32.6525 28.3786 32.6525 28.9263C32.6525 29.3332 32.4256 29.5914 32.0813 29.5993C31.7214 29.6071 31.4867 29.3411 31.4867 28.9185C31.4867 27.8152 31.4867 26.7119 31.4867 25.6087C31.4867 25.1783 31.7136 24.9201 32.0735 24.9279C32.4413 24.9279 32.6525 25.1783 32.6525 25.6165C32.6604 26.172 32.6525 26.7276 32.6525 27.2831Z" fill="#113B28"/>
<path d="M19.4054 20.2408C20.0548 20.233 20.5791 20.7494 20.5869 21.391C20.5947 22.0327 20.0705 22.5648 19.4288 22.5726C18.7872 22.5804 18.2551 22.0561 18.2473 21.4145C18.2395 20.7651 18.7637 20.2408 19.4054 20.2408Z" fill="#113B28"/>
<path d="M11.2129 26.0936C11.8623 26.0858 12.3866 26.6022 12.3944 27.2517C12.4022 27.8933 11.878 28.4254 11.2285 28.4332C10.5869 28.441 10.0548 27.9168 10.047 27.2751C10.047 26.6257 10.5634 26.1014 11.2129 26.0936Z" fill="#113B28"/>
<path d="M32.0657 22.5803C32.3865 22.5803 32.6447 22.8229 32.6604 23.1437C32.6682 23.4723 32.4021 23.7462 32.0735 23.7384C31.7527 23.7306 31.4945 23.4723 31.4945 23.1594C31.4866 22.8385 31.737 22.5881 32.0657 22.5803Z" fill="#113B28"/>
</svg>
