<svg width="167" height="167" viewBox="0 0 167 167" fill="none" xmlns="http://www.w3.org/2000/svg">
<path d="M48.4649 54.4503H71.9676V71.8218L98.2438 54.5963L117.951 54.4503L90.9448 73.5736L124.666 112.988L93.4265 112.842L71.9676 86.7117V112.696H48.319L48.4649 54.4503Z" fill="#FCFAF5"/>
<path d="M83.5 146.125C48.903 146.125 20.875 117.951 20.875 83.5C20.875 49.049 48.903 20.875 83.5 20.875C118.097 20.875 146.125 48.903 146.125 83.5C146.125 118.097 117.951 146.125 83.5 146.125ZM83.5 29.6337C53.7203 29.6337 29.6337 53.7203 29.6337 83.5C29.6337 113.28 53.7203 137.366 83.5 137.366C113.28 137.366 137.366 113.28 137.366 83.5C137.366 53.7203 113.134 29.6337 83.5 29.6337Z" fill="#FCFAF5"/>
</svg>
